<svg xmlns="http://www.w3.org/2000/svg" viewBox="50 50 1110 400"><path fill="#044132" fill-rule="evenodd" d="M378.4,440.0C392.8,437.9 396.4,432.5 395.9,413.7C395.3,396.0 392.3,392.0 377.7,389.9C374.3,389.4 322.2,389.0 262.0,388.9C144.7,388.8 145.9,388.9 143.1,383.9C140.7,379.5 143.2,375.7 160.0,358.5C168.6,349.7 180.5,336.9 186.4,330.0C202.1,311.9 253.3,256.3 328.0,175.9C393.3,105.7 390.5,109.8 390.5,86.5C390.5,68.6 389.6,66.1 381.5,62.0C376.5,59.5 376.5,59.5 232.5,59.2C137.1,59.0 85.8,59.3 80.6,60.0C65.4,62.0 62.1,66.5 62.0,85.0C62.0,99.7 63.8,104.1 71.5,108.0C76.4,110.5 76.4,110.5 187.5,111.0C314.9,111.6 306.0,110.9 305.0,120.5C304.6,125.1 301.5,128.7 248.1,186.0C204.2,233.1 198.1,239.8 181.5,258.0C172.8,267.6 162.2,279.1 158.1,283.5C153.9,287.9 139.2,303.6 125.5,318.5C111.7,333.3 92.5,353.9 82.7,364.3C61.1,387.1 60.2,388.6 59.3,405.2C58.1,428.8 62.1,437.8 74.6,439.9C81.9,441.2 370.0,441.2 378.4,440.0ZM459.3,440.1C473.6,438.2 476.6,434.8 486.0,409.5C506.1,355.8 505.9,356.0 515.9,352.5C523.2,350.0 675.9,350.3 681.5,352.9C688.5,356.1 692.6,362.6 698.8,380.0C713.4,420.7 718.8,432.5 724.9,436.6C731.8,441.1 757.4,442.4 766.5,438.6C776.7,434.3 776.3,428.8 764.0,396.5C745.9,349.1 735.7,321.2 730.5,305.5C727.6,296.7 723.4,285.2 721.0,280.0C718.7,274.8 714.3,264.1 711.4,256.3C708.4,248.4 703.6,235.6 700.6,227.8C684.5,185.1 664.5,132.2 655.4,107.5C636.5,56.9 639.6,59.5 598.0,59.5C557.8,59.5 559.2,58.5 544.2,98.5C539.2,111.7 532.2,130.4 528.5,140.0C524.9,149.6 518.7,166.1 514.9,176.5C511.0,186.9 506.1,200.0 504.0,205.5C501.9,211.0 498.8,219.1 497.2,223.5C484.6,257.3 476.6,278.0 472.8,286.5C470.3,292.0 466.1,303.0 463.5,311.0C459.5,323.2 441.7,371.2 426.1,412.3C420.3,427.5 420.8,434.2 428.2,438.1C433.0,440.7 447.4,441.6 459.3,440.1ZM994.5,438.7C1034.4,429.8 1054.9,421.9 1079.5,405.9C1096.6,394.8 1117.4,372.6 1128.5,353.6C1134.8,342.9 1145.0,314.3 1148.6,297.5C1150.7,288.1 1151.7,232.2 1150.1,215.4C1147.9,191.2 1133.5,153.4 1119.3,134.5C1095.3,102.7 1068.1,81.6 1037.9,71.6C1001.3,59.3 994.8,58.8 896.0,59.2C822.5,59.5 822.5,59.5 817.5,62.0C807.8,66.9 808.5,60.2 808.3,150.0C808.2,193.2 807.8,242.2 807.4,259.0C807.1,275.8 806.8,291.1 806.9,293.0C806.9,294.9 807.3,326.2 807.7,362.5C808.5,426.3 808.6,428.6 810.5,432.0C812.9,436.1 817.2,438.7 823.2,440.0C831.4,441.6 986.5,440.5 994.5,438.7ZM872.5,387.8C868.3,386.3 864.3,382.3 862.8,378.1C861.5,374.5 861.1,342.3 861.8,310.0C862.0,302.6 861.7,256.7 861.3,208.0C860.6,138.2 860.7,118.9 861.7,116.9C864.2,111.5 864.3,111.5 932.0,111.5C1001.9,111.5 996.4,110.9 1021.9,121.8C1044.1,131.4 1066.5,150.3 1077.8,168.9C1098.5,203.0 1104.5,255.5 1092.5,297.5C1086.9,317.0 1069.8,343.4 1053.4,357.7C1035.0,373.8 1007.8,384.6 976.8,387.9C964.0,389.3 876.6,389.2 872.5,387.8ZM649.0,310.4C620.7,301.0 625.9,301.8 583.0,301.0C540.5,300.3 538.6,300.1 535.6,294.1C531.8,286.8 533.4,281.2 564.0,199.0C569.0,185.5 576.0,166.6 579.6,156.9C589.3,130.8 593.1,125.2 599.8,127.6C605.0,129.4 607.5,135.1 629.5,194.5C636.4,213.2 643.9,233.2 646.2,239.0C648.5,244.8 653.1,258.1 656.6,268.5C660.1,278.9 664.3,291.3 666.0,296.0C669.4,305.7 669.6,308.6 667.4,311.8C665.3,314.9 661.5,314.6 649.0,310.4Z"/></svg>